<svg width="100" height="100" viewBox="0 0 100 100" fill="none" xmlns="http://www.w3.org/2000/svg">
<path d="M70 50C70 61.0457 61.0457 70 50 70C38.9543 70 30 61.0457 30 50C30 38.9543 38.9543 30 50 30C61.0457 30 70 38.9543 70 50Z" fill="#FF7A30"/>
<path d="M70 50C70 61.0457 61.0457 70 50 70C38.9543 70 30 61.0457 30 50C30 38.9543 38.9543 30 50 30C61.0457 30 70 38.9543 70 50Z" fill="#FF7A30"/>
<path d="M70 50C70 61.0457 61.0457 70 50 70C38.9543 70 30 61.0457 30 50C30 38.9543 38.9543 30 50 30C61.0457 30 70 38.9543 70 50Z" fill="#FF7A30"/>
<g clip-path="url(#clip0_78_2853)">
<path d="M44.046 54.419L46.4468 52.8087C46.5481 52.7365 46.6668 52.6926 46.7907 52.6816C46.9146 52.6705 47.0392 52.6926 47.1517 52.7457L48.0735 53.2132C48.1891 53.2701 48.3188 53.2919 48.4467 53.2761C48.5746 53.2603 48.6951 53.2076 48.7934 53.1243C50.5167 51.6983 51.6701 49.7005 52.0434 47.4951C52.0664 47.3683 52.0518 47.2376 52.0016 47.1189C51.9513 47.0003 51.8675 46.8989 51.7605 46.8272L50.9212 46.2168C50.8172 46.1482 50.7333 46.0532 50.6783 45.9414C50.6233 45.8297 50.599 45.7053 50.6081 45.581L50.8023 42.6967L50.8467 41.9579C50.8547 41.8516 50.8866 41.7484 50.94 41.6562C51.0258 41.5064 51.1643 41.3941 51.3286 41.3412C51.7815 41.1905 52.2638 41.15 52.7355 41.2231C53.2072 41.2962 53.6547 41.4808 54.0407 41.7616L54.2292 41.9051L54.3269 41.98C54.3723 42.0128 54.416 42.048 54.4576 42.0855L54.5779 42.2011C56.1658 43.7529 55.8671 47.6543 53.821 51.5282L53.1985 52.6064C50.8696 56.3102 47.6403 58.5195 45.4929 57.9529L45.3326 57.9066C45.2796 57.8894 45.2275 57.8694 45.1767 57.8466L45.0625 57.8003L44.844 57.7088C44.408 57.5147 44.0247 57.2194 43.7257 56.8473C43.4268 56.4753 43.2209 56.0374 43.1252 55.5698C43.0889 55.4012 43.1169 55.225 43.2037 55.0759C43.2569 54.9835 43.3302 54.9043 43.4183 54.8442L44.046 54.419Z" stroke="white" stroke-width="1.5" stroke-miterlimit="10"/>
</g>
<defs>
<clipPath id="clip0_78_2853">
<rect width="24" height="24" fill="white" transform="matrix(-1 0 0 1 62 38)"/>
</clipPath>
</defs>
</svg>
