<svg width="397" height="65" viewBox="0 0 397 65" fill="none" xmlns="http://www.w3.org/2000/svg">
<path d="M4.34375 23.0114C4.34375 37.4473 4.3624 41.1535 4.42456 41.2043C4.48672 41.2551 5.48752 41.791 6.48833 42.3043C6.62508 42.3777 6.99184 42.5695 7.29643 42.733C7.60723 42.891 7.96777 43.0828 8.10453 43.1505C8.24129 43.2238 8.80074 43.5115 9.34776 43.7992C9.89478 44.0869 10.4667 44.3859 10.6159 44.4649C10.7713 44.5438 11.0386 44.6792 11.2064 44.7751C11.3805 44.871 11.7783 45.0741 12.0829 45.2377C13.755 46.1121 15.6696 47.1106 15.968 47.2685C16.1545 47.3701 16.6021 47.6014 16.9625 47.7876C17.3231 47.9737 18.3861 48.5321 19.3247 49.0286C20.2633 49.525 21.1584 49.9932 21.3139 50.0723C21.4693 50.1512 22.0411 50.4502 22.5882 50.7379C23.676 51.3133 24.6457 51.8154 24.9814 51.9902C25.0995 52.0523 25.5471 52.2892 25.976 52.5149C26.4049 52.7405 27.1322 53.1184 27.5922 53.361C30.9054 55.0929 32.0368 55.6852 33.0313 56.2099C33.3422 56.3734 33.7027 56.5596 33.8394 56.6329C34.287 56.8586 35.754 57.6258 36.2948 57.9192C36.587 58.0714 36.9475 58.2632 37.1029 58.3422C37.6002 58.5961 37.7494 58.6694 38.3524 58.9966C38.6818 59.1715 38.9802 59.3125 39.0176 59.3125C39.0734 59.3125 39.0921 54.918 39.0921 41.1873C39.0921 31.225 39.0673 23.0396 39.0424 23.0114C39.005 22.9606 38.3151 22.5827 37.134 21.9678C37.0345 21.9171 36.6554 21.7196 36.2948 21.5334C35.9343 21.3473 34.9272 20.817 34.057 20.3601C33.1868 19.9031 32.3724 19.4801 32.2543 19.418C31.813 19.1867 28.7919 17.6072 28.4003 17.3984C27.4243 16.8851 25.2363 15.7343 24.9814 15.6045C24.826 15.5312 24.5463 15.3846 24.3598 15.283C23.9309 15.0517 21.7552 13.9065 21.3636 13.7091C21.202 13.6302 20.7607 13.3988 20.3814 13.1958C20.0022 12.9927 19.679 12.8291 19.6728 12.8291C19.6604 12.8291 19.4055 12.6937 19.1009 12.5301C18.7963 12.3665 18.3923 12.1521 18.2058 12.0562C18.0193 11.9603 17.6899 11.7911 17.4785 11.6783C16.5772 11.21 16.2975 11.0577 16.0301 10.9223C15.8747 10.8434 15.2594 10.5218 14.6626 10.2059C13.4877 9.58538 11.9399 8.77304 10.6532 8.10173C10.2118 7.87048 9.67722 7.58841 9.47209 7.48123C9.26695 7.37405 8.99965 7.23866 8.88155 7.17661C8.76344 7.11455 7.85589 6.63506 6.86129 6.11606C4.63591 4.94834 4.49294 4.875 4.41213 4.875C4.3624 4.875 4.34375 10.3018 4.34375 23.0114Z" fill="#FF8433"/>
<path d="M76.4461 23.0114C76.4461 37.4473 76.4278 41.1535 76.3673 41.2043C76.3067 41.2551 75.3309 41.791 74.3551 42.3043C74.2217 42.3777 73.8642 42.5695 73.5672 42.733C73.2642 42.891 72.9126 43.0828 72.7793 43.1505C72.646 43.2238 72.1004 43.5115 71.5671 43.7992C71.0338 44.087 70.4762 44.3859 70.3307 44.4649C70.1792 44.5438 69.9186 44.6792 69.7549 44.7751C69.5852 44.8711 69.1974 45.0741 68.9004 45.2377C67.2701 46.1121 65.4033 47.1106 65.1124 47.2685C64.9306 47.3701 64.4942 47.6014 64.1427 47.7876C63.7912 47.9737 62.7548 48.5321 61.8396 49.0286C60.9244 49.525 60.0517 49.9932 59.9002 50.0723C59.7487 50.1512 59.191 50.4502 58.6577 50.7379C57.5971 51.3133 56.6516 51.8154 56.3243 51.9902C56.2092 52.0523 55.7728 52.2892 55.3546 52.5149C54.9364 52.7405 54.2273 53.1184 53.7788 53.361C50.5484 55.0929 49.4454 55.6852 48.4757 56.2099C48.1726 56.3734 47.8211 56.5596 47.6878 56.6329C47.2514 56.8586 45.821 57.6258 45.2937 57.9192C45.0089 58.0715 44.6574 58.2633 44.5059 58.3422C44.021 58.5961 43.8755 58.6694 43.2877 58.9966C42.9664 59.1715 42.6755 59.3125 42.6391 59.3125C42.5846 59.3125 42.5664 54.918 42.5664 41.1873C42.5664 31.225 42.5906 23.0397 42.6149 23.0114C42.6512 22.9606 43.324 22.5827 44.4755 21.9678C44.5725 21.9171 44.9422 21.7196 45.2937 21.5334C45.6453 21.3473 46.6272 20.817 47.4756 20.3601C48.3241 19.9031 49.118 19.4801 49.2332 19.418C49.6636 19.1867 52.609 17.6072 52.9909 17.3984C53.9425 16.8851 56.0758 15.7343 56.3243 15.6045C56.4758 15.5312 56.7486 15.3846 56.9304 15.283C57.3486 15.0517 59.4699 13.9065 59.8517 13.7091C60.0093 13.6302 60.4396 13.3988 60.8093 13.1958C61.179 12.9927 61.4942 12.8291 61.5002 12.8291C61.5124 12.8291 61.7608 12.6937 62.0578 12.5301C62.3548 12.3665 62.7487 12.1521 62.9305 12.0562C63.1124 11.9603 63.4336 11.7911 63.6397 11.6783C64.5184 11.21 64.7912 11.0577 65.0518 10.9223C65.2033 10.8434 65.8033 10.5218 66.3852 10.2059C67.5307 9.58538 69.0398 8.77305 70.2944 8.1018C70.7247 7.87048 71.2459 7.58841 71.4459 7.48123C71.6459 7.37405 71.9066 7.23866 72.0217 7.17661C72.1369 7.11455 73.0217 6.63506 73.9914 6.11606C76.1612 4.94834 76.3006 4.875 76.3794 4.875C76.4278 4.875 76.4461 10.3018 76.4461 23.0114Z" fill="#FF8433"/>
<path d="M99.0312 47.125V16.25H111.191C114.315 16.25 116.716 16.9704 118.394 18.4113C120.071 19.8227 120.911 21.7634 120.911 24.2334C120.911 25.9095 120.575 27.3209 119.904 28.4677C119.258 29.6145 118.381 30.4966 117.271 31.1141C116.16 31.7316 114.96 32.0404 113.669 32.0404L114.366 30.7171C115.915 30.7171 117.283 31.0259 118.471 31.6434C119.659 32.2609 120.601 33.1725 121.298 34.378C121.995 35.5543 122.344 37.0245 122.344 38.7888C122.344 41.4352 121.466 43.4936 119.71 44.9638C117.98 46.4046 115.399 47.125 111.965 47.125H99.0312ZM102.904 43.5523H111.81C113.953 43.5523 115.593 43.1407 116.728 42.3173C117.864 41.494 118.432 40.2002 118.432 38.4359C118.432 36.6422 117.864 35.3337 116.728 34.5104C115.593 33.687 113.953 33.2754 111.81 33.2754H102.555V29.7027H110.842C112.805 29.7027 114.328 29.291 115.412 28.4677C116.496 27.6443 117.038 26.4093 117.038 24.7627C117.038 23.116 116.496 21.881 115.412 21.0577C114.328 20.2343 112.805 19.8227 110.842 19.8227H102.904V43.5523ZM137.246 47.125V31.6875V16.25H141.118V47.125H137.246ZM158.141 47.125V16.25H162.013V43.2877H176.69V47.125H158.141ZM190.04 47.125V16.25H193.913V47.125H190.04ZM210.935 47.125V16.25H214.111L226.27 39.5827H224.567L236.571 16.25H239.747L239.785 47.125H236.068L236.029 22.9102H236.92L226.232 43.3759H224.45L213.685 22.9102H214.653V47.125H210.935ZM260.235 39.6709L260.041 34.2898L275.415 16.25H279.83L267.941 30.5407L265.773 33.2754L260.235 39.6709ZM256.827 47.125V16.25H260.7V47.125H256.827ZM276.035 47.125L264.921 32.3932L267.515 29.1293L280.566 47.125H276.035ZM288.366 47.125L300.641 16.25H304.475L316.79 47.125H312.724L301.764 18.72H303.313L292.354 47.125H288.366ZM293.594 39.4062L294.639 35.8777H309.897L311.02 39.4062H293.594ZM329.74 47.125V16.25H332.916L350.845 41.6116H349.18V16.25H353.053V47.125H349.877L331.948 21.7634H333.613V47.125H329.74ZM365.968 47.125L378.244 16.25H382.078L394.392 47.125H390.326L379.367 18.72H380.916L369.957 47.125H365.968ZM371.196 39.4062L372.242 35.8777H387.499L388.622 39.4062H371.196Z" fill="#FF8433"/>
</svg>
